# xmcd CD database file
#
# Track frame offsets:
#	150
#	14435
#	32562
#	49277
#	63080
#	78647
#	89922
#	104952
#	117480
#	130737
#	142940
#	162105
#
# Disc length: 2470 seconds
#
# Revision: 0
# Processed by: cddbd v1.4b42PL1 Copyright (c) Steve Scherf et al.
# Submitted via: Feurio! 1.62 - http://www.feurio.com
#
DISCID=a809a40c
DTITLE=The Minus 5 - The Lonesome Death Of Buck McCoy
DYEAR=1997
DGENRE=Hollywood Records
TTITLE0=The Rest Of The World
TTITLE1=Cross Every Line
TTITLE2=Empty Room
TTITLE3=Wasted Bandage
TTITLE4=Boeing Spacearium
TTITLE5=My Mummy's Dead
TTITLE6=Moonshine Girl
TTITLE7=Popsycle Shoppe
TTITLE8=Wouldn't Want To Care
TTITLE9=Spidery Moon
TTITLE10=Bullfight
TTITLE11=Hate Me More
EXTD=162 115-2
EXTT0=
EXTT1=
EXTT2=
EXTT3=
EXTT4=
EXTT5=
EXTT6=
EXTT7=
EXTT8=
EXTT9=
EXTT10=
EXTT11=
PLAYORDER=
